<svg height="496pt" viewBox="-64 0 496 496.00474" width="496pt" xmlns="http://www.w3.org/2000/svg"><path d="m296.003906 368.003906h-56v-45.839844c38.078125-20.078124 64-60.078124 64-106.160156v152.480469c-2.640625-.320313-5.28125-.480469-8-.480469zm0 0" fill="#434a54"/><path d="m184.003906 95.683594c72-15.679688 120 24.320312 120 40.320312h-240c0-16 48-56 120-40.320312zm0 0" fill="#eac6bb"/><path d="m80.003906 160.003906h224v56c0 46.082032-25.921875 86.082032-64 106.160156-16.722656 8.800782-35.761718 13.839844-56 13.839844-20.242187 0-39.28125-5.039062-56-13.839844-38.082031-20.078124-64-60.078124-64-106.160156v-56zm0 0" fill="#eac6bb"/><path d="m210.648438 20.8125c51.824218 5.34375 61.355468 41.289062 61.355468 115.191406v80c0 46.082032-25.921875 86.082032-64 106.160156-12.234375 6.449219-25.722656 10.839844-40 12.753907 5.230469.695312 10.566406 1.085937 16 1.085937 20.238282 0 39.277344-5.039062 56-13.839844 38.078125-20.078124 64-60.078124 64-106.160156v-80c0-87.121094-13.183594-121.527344-93.355468-115.191406zm0 0" fill="#d3b1a9"/><path d="m304.003906 160.003906h-32l16-24h24v24zm0 0" fill="#da4453"/><path d="m184.003906 24.003906c104-16 120 16 120 112 0-16-48-56-120-40.320312zm0 0" fill="#656d78"/><path d="m64.003906 136.003906c0-96 16-128 120-112v71.679688c-72-15.679688-120 24.320312-120 40.320312zm0 0" fill="#656d78"/><path d="m128.003906 368.003906h-56c-2.722656 0-5.363281.160156-8 .480469v-152.480469c0 46.082032 25.917969 86.082032 64 106.160156zm0 0" fill="#434a54"/><path d="m96.003906 136.003906-16 24h-24v-24zm0 0" fill="#ed5565"/><path d="m128.003906 328.003906v-5.839844c16.71875 8.800782 35.757813 13.839844 56 13.839844 20.238282 0 39.277344-5.039062 56-13.839844v45.839844l-56 32-56-32zm0 0" fill="#eac6bb"/><path d="m200.003906 416.003906-16 40-16-40 16-16zm0 0" fill="#e6e9ed"/><path d="m336.003906 8.003906s42.398438 64.878906-18.160156 96.878906zm0 0" fill="#e6e9ed"/><path d="m304.003906 368.484375c31.597656 3.921875 56 30.878906 56 63.519531v48c0 4.402344-3.601562 8-8 8h-336c-4.402344 0-8-3.597656-8-8v-48c0-32.640625 24.398438-59.597656 56-63.519531 2.636719-.320313 5.277344-.480469 8-.480469h56l56 32-16 16 16 40 16-40-16-16 56-32h56c2.71875 0 5.359375.160156 8 .480469zm0 0" fill="#965353"/><path d="m304.003906 368.484375c-2.640625-.320313-5.28125-.480469-8-.480469h-32c2.71875 0 5.359375.160156 8 .480469 31.597656 3.921875 56 30.878906 56 63.519531v48c0 4.402344-3.601562 8-8 8h32c4.398438 0 8-3.597656 8-8v-48c0-32.640625-24.402344-59.597656-56-63.519531zm0 0" fill="#844747"/><path d="m144.003906 136.003906-16 24h-48l16-24zm0 0" fill="#da4453"/><path d="m192.003906 136.003906-16 24h-48l16-24zm0 0" fill="#ed5565"/><path d="m240.003906 136.003906-16 24h-48l16-24zm0 0" fill="#da4453"/><path d="m288.003906 136.003906-16 24h-48l16-24zm0 0" fill="#ed5565"/><path d="m303.84375 121.460938c-.007812-.542969-.015625-1.105469-.035156-1.640626-.101563-4.441406-.269532-8.6875-.484375-12.816406-.042969-.664062-.074219-1.335937-.113281-1.992187-.234376-4.023438-.527344-7.886719-.886719-11.605469-.066407-.609375-.128907-1.210938-.1875-1.816406-.390625-3.714844-.839844-7.289063-1.382813-10.695313-.070312-.449219-.160156-.875-.222656-1.320312-.585938-3.503907-1.242188-6.875-2.015625-10.050781-.035156-.144532-.074219-.269532-.105469-.40625-.792968-3.199219-1.6875-6.242188-2.695312-9.113282-.066406-.175781-.113282-.367187-.167969-.542968-1-2.800782-2.128906-5.417969-3.351563-7.902344-.167968-.328125-.3125-.65625-.480468-.976563-1.214844-2.378906-2.558594-4.601562-4.015625-6.6875-.21875-.320312-.449219-.640625-.671875-.960937-1.496094-2.039063-3.105469-3.953125-4.839844-5.710938-.242188-.25-.503906-.480468-.746094-.714844-1.832031-1.765624-3.773437-3.40625-5.886718-4.886718-.167969-.113282-.34375-.214844-.511719-.328125-2.234375-1.519531-4.617188-2.902344-7.191407-4.113281-.015624 0-.023437-.007813-.03125-.007813-2.546874-1.183594-5.304687-2.191406-8.210937-3.078125-.304687-.089844-.582031-.191406-.878906-.28125-2.816407-.816406-5.824219-1.480469-8.976563-2.023438-.464844-.082031-.910156-.160156-1.382812-.230468-3.167969-.503906-6.503906-.867188-10.023438-1.105469-.519531-.03125-1.066406-.0625-1.59375-.097656-3.617187-.207031-7.40625-.292969-11.40625-.238281-.449218.007812-.90625.023437-1.359375.039062-4.226562.089844-8.625.289062-13.296875.65625 0 0-.023437 0-.03125 0 43.664063 4.503906 57.253906 30.847656 60.46875 83.214844 20.921875 10.035156 32.875 23.992187 32.875 31.976562 0-5.039062-.058594-9.855468-.160156-14.542968zm0 0" fill="#434a54"/><path d="m128.003906 376.019531c-4.425781 0-8-3.574219-8-8v-45.847656c0-4.421875 3.574219-8 8-8 4.421875 0 8 3.578125 8 8v45.847656c0 4.425781-3.578125 8-8 8zm0 0"/><path d="m240.003906 376.003906c-4.425781 0-8-3.574218-8-8v-45.832031c0-4.421875 3.574219-8 8-8 4.421875 0 8 3.578125 8 8v45.832031c0 4.425782-3.578125 8-8 8zm0 0"/><path d="m184.003906 344.011719c-70.578125 0-128-57.421875-128-128 0-4.414063 3.574219-8 8-8 4.421875 0 8 3.585937 8 8 0 61.761719 50.238282 112 112 112 61.757813 0 112-50.238281 112-112 0-4.414063 3.574219-8 8-8 4.421875 0 8 3.585937 8 8 0 70.578125-57.425781 128-128 128zm0 0"/><path d="m64.003906 224.011719c-4.425781 0-8-3.582031-8-8v-56.007813c0-4.414062 3.574219-8 8-8 4.421875 0 8 3.585938 8 8v56.007813c0 4.417969-3.578125 8-8 8zm0 0"/><path d="m304.003906 224.011719c-4.425781 0-8-3.582031-8-8v-56.007813c0-4.414062 3.574219-8 8-8 4.421875 0 8 3.585938 8 8v56.007813c0 4.417969-3.578125 8-8 8zm0 0"/><path d="m183.996094 408.003906c-1.347656 0-2.714844-.335937-3.960938-1.054687l-56-31.984375c-3.832031-2.183594-5.167968-7.082032-2.976562-10.910156 2.175781-3.832032 7.070312-5.195313 10.910156-2.976563l56 31.984375c3.832031 2.183594 5.167969 7.078125 2.976562 10.910156-1.472656 2.585938-4.167968 4.03125-6.949218 4.03125zm0 0"/><path d="m184.011719 408.003906c-2.785157 0-5.480469-1.445312-6.953125-4.03125-2.191406-3.832031-.855469-8.726562 2.976562-10.910156l56-31.984375c3.832032-2.21875 8.71875-.855469 10.910156 2.976563 2.191407 3.828124.855469 8.726562-2.976562 10.910156l-56 31.984375c-1.246094.71875-2.613281 1.054687-3.957031 1.054687zm0 0"/><path d="m168.003906 424.003906c-2.050781 0-4.097656-.78125-5.65625-2.34375-3.128906-3.128906-3.128906-8.183594 0-11.3125l16-16c3.125-3.125 8.183594-3.125 11.3125 0 3.125 3.128906 3.125 8.183594 0 11.3125l-16 16c-1.5625 1.5625-3.609375 2.34375-5.65625 2.34375zm0 0"/><path d="m200.003906 424.003906c-2.050781 0-4.097656-.78125-5.65625-2.34375l-16-16c-3.128906-3.128906-3.128906-8.183594 0-11.3125 3.125-3.125 8.183594-3.125 11.3125 0l16 16c3.125 3.128906 3.125 8.183594 0 11.3125-1.5625 1.5625-3.609375 2.34375-5.65625 2.34375zm0 0"/><path d="m184.003906 464.003906c-.992187 0-2-.175781-2.96875-.566406-4.105468-1.640625-6.105468-6.296875-4.464844-10.402344l16-40c1.640626-4.117187 6.328126-6.109375 10.398438-4.460937 4.105469 1.636719 6.105469 6.292969 4.464844 10.398437l-16 40c-1.253906 3.136719-4.261719 5.03125-7.429688 5.03125zm0 0"/><path d="m184.003906 464.003906c-3.167968 0-6.175781-1.894531-7.433594-5.03125l-16-40c-1.640624-4.105468.359376-8.761718 4.464844-10.398437 4.070313-1.648438 8.757813.34375 10.398438 4.460937l16 40c1.640625 4.105469-.359375 8.761719-4.464844 10.402344-.964844.390625-1.972656.566406-2.964844.566406zm0 0"/><path d="m128.003906 456.003906c-2.050781 0-4.097656-.78125-5.65625-2.34375-3.128906-3.128906-3.128906-8.191406 0-11.3125l16-15.984375c3.125-3.125 8.183594-3.125 11.3125 0 3.125 3.128907 3.125 8.195313 0 11.3125l-16 15.984375c-1.5625 1.5625-3.609375 2.34375-5.65625 2.34375zm0 0"/><path d="m128.003906 456.003906c-2.050781 0-4.097656-.78125-5.65625-2.34375l-16-15.984375c-3.128906-3.117187-3.128906-8.183593 0-11.3125 3.125-3.125 8.183594-3.125 11.3125 0l16 15.984375c3.125 3.121094 3.125 8.183594 0 11.3125-1.5625 1.5625-3.609375 2.34375-5.65625 2.34375zm0 0"/><path d="m96.003906 456.003906c-2.050781 0-4.097656-.78125-5.65625-2.34375-3.128906-3.128906-3.128906-8.191406 0-11.3125l16-15.984375c3.125-3.125 8.183594-3.125 11.3125 0 3.125 3.128907 3.125 8.195313 0 11.3125l-16 15.984375c-1.5625 1.5625-3.609375 2.34375-5.65625 2.34375zm0 0"/><path d="m64.003906 456.003906c-2.050781 0-4.097656-.78125-5.65625-2.34375-3.128906-3.128906-3.128906-8.191406 0-11.3125l16-15.984375c3.125-3.125 8.183594-3.125 11.3125 0 3.125 3.128907 3.125 8.195313 0 11.3125l-16 15.984375c-1.5625 1.5625-3.609375 2.34375-5.65625 2.34375zm0 0"/><path d="m96.003906 456.003906c-2.050781 0-4.097656-.78125-5.65625-2.34375l-16-15.984375c-3.128906-3.117187-3.128906-8.183593 0-11.3125 3.125-3.125 8.183594-3.125 11.3125 0l16 15.984375c3.125 3.121094 3.125 8.183594 0 11.3125-1.5625 1.5625-3.609375 2.34375-5.65625 2.34375zm0 0"/><path d="m64.003906 456.003906c-2.050781 0-4.097656-.78125-5.65625-2.34375l-16-15.984375c-3.128906-3.117187-3.128906-8.183593 0-11.3125 3.125-3.125 8.183594-3.125 11.3125 0l16 15.984375c3.125 3.121094 3.125 8.183594 0 11.3125-1.5625 1.5625-3.609375 2.34375-5.65625 2.34375zm0 0"/><path d="m304.003906 456.003906c-2.050781 0-4.097656-.78125-5.65625-2.34375-3.128906-3.128906-3.128906-8.191406 0-11.3125l16-15.984375c3.125-3.125 8.183594-3.125 11.3125 0 3.125 3.128907 3.125 8.195313 0 11.3125l-16 15.984375c-1.5625 1.5625-3.609375 2.34375-5.65625 2.34375zm0 0"/><path d="m304.003906 456.003906c-2.050781 0-4.097656-.78125-5.65625-2.34375l-16-15.984375c-3.128906-3.117187-3.128906-8.183593 0-11.3125 3.125-3.125 8.183594-3.125 11.3125 0l16 15.984375c3.125 3.121094 3.125 8.183594 0 11.3125-1.5625 1.5625-3.609375 2.34375-5.65625 2.34375zm0 0"/><path d="m272.003906 456.003906c-2.050781 0-4.097656-.78125-5.65625-2.34375-3.128906-3.128906-3.128906-8.191406 0-11.3125l16-15.984375c3.125-3.125 8.183594-3.125 11.3125 0 3.125 3.128907 3.125 8.195313 0 11.3125l-16 15.984375c-1.5625 1.5625-3.609375 2.34375-5.65625 2.34375zm0 0"/><path d="m240.003906 456.003906c-2.050781 0-4.097656-.78125-5.65625-2.34375-3.128906-3.128906-3.128906-8.191406 0-11.3125l16-15.984375c3.125-3.125 8.183594-3.125 11.3125 0 3.125 3.128907 3.125 8.195313 0 11.3125l-16 15.984375c-1.5625 1.5625-3.609375 2.34375-5.65625 2.34375zm0 0"/><path d="m272.003906 456.003906c-2.050781 0-4.097656-.78125-5.65625-2.34375l-16-15.984375c-3.128906-3.117187-3.128906-8.183593 0-11.3125 3.125-3.125 8.183594-3.125 11.3125 0l16 15.984375c3.125 3.121094 3.125 8.183594 0 11.3125-1.5625 1.5625-3.609375 2.34375-5.65625 2.34375zm0 0"/><path d="m240.003906 456.003906c-2.050781 0-4.097656-.78125-5.65625-2.34375l-16-15.984375c-3.128906-3.117187-3.128906-8.183593 0-11.3125 3.125-3.125 8.183594-3.125 11.3125 0l16 15.984375c3.125 3.121094 3.125 8.183594 0 11.3125-1.5625 1.5625-3.609375 2.34375-5.65625 2.34375zm0 0"/><path d="m8.003906 440.027344c-4.425781 0-7.99999975-3.574219-7.99999975-8 0-39.710938 32.30078175-72.015625 72.01562475-72.015625 4.421875 0 8 3.578125 8 8 0 4.425781-3.578125 8-8 8-30.890625 0-56.015625 25.128906-56.015625 56.015625 0 4.425781-3.578125 8-8 8zm0 0"/><path d="m360.003906 440.019531c-4.425781 0-8-3.574219-8-8 0-30.871093-25.128906-56-56-56-4.425781 0-8-3.574219-8-8 0-4.421875 3.574219-8 8-8 39.703125 0 72 32.296875 72 72 0 4.425781-3.578125 8-8 8zm0 0"/><path d="m128.003906 376.019531-55.984375-.007812c-4.425781 0-8-3.582031-8-8 0-4.421875 3.582031-8 8-8l55.984375.007812c4.421875 0 8 3.585938 8 8 0 4.425781-3.585937 8-8 8zm0 0"/><path d="m296.003906 376.019531-56-.007812c-4.425781 0-8-3.582031-8-8 0-4.421875 3.582032-8 8-8l56 .007812c4.421875 0 8 3.585938 8 8 0 4.425781-3.585937 8-8 8zm0 0"/><path d="m8.011719 488.003906c-4.417969 0-8.0000002-3.574218-8.0000002-8l-.00781255-47.976562c0-4.414063 3.57421875-8 7.99999975-8 4.414063 0 8 3.578125 8 8l.007813 47.976562c0 4.417969-3.578125 8-8 8zm0 0"/><path d="m16.011719 496.003906c-8.824219 0-16.0000002-7.175781-16.0000002-16 0-4.421875 3.5742192-8 8.0000002-8 4.421875 0 8 3.578125 8 8v.015625c4.421875 0 8 3.570313 8 7.992188 0 4.417969-3.578125 7.992187-8 7.992187zm0 0"/><path d="m352.003906 496.003906c-4.425781 0-8-3.574218-8-8 0-4.421875 3.574219-8 8-8h.015625c0-4.421875 3.566407-8 7.992188-8 4.414062 0 7.992187 3.578125 7.992187 8 0 8.824219-7.175781 16-16 16zm0 0"/><path d="m360.003906 488.003906c-4.425781 0-8-3.574218-8-8v-47.984375c0-4.421875 3.574219-8 8-8 4.421875 0 8 3.578125 8 8v47.984375c0 4.425782-3.578125 8-8 8zm0 0"/><path d="m352.003906 496.003906h-335.992187c-4.425781 0-8-3.574218-8-8 0-4.421875 3.574219-8 8-8h335.992187c4.421875 0 8 3.578125 8 8 0 4.425782-3.578125 8-8 8zm0 0"/><path d="m128.003906 375.957031c-4.425781 0-8-3.578125-8-8v-39.945312c0-4.421875 3.574219-8 8-8 4.421875 0 8 3.578125 8 8v39.945312c0 4.421875-3.578125 8-8 8zm0 0"/><path d="m240.003906 376.011719c-4.425781 0-8-3.574219-8-8v-40c0-4.421875 3.574219-8 8-8 4.421875 0 8 3.578125 8 8v40c0 4.425781-3.578125 8-8 8zm0 0"/><path d="m304.011719 144.003906c-4.425781 0-8-3.582031-8-8 0-47.320312-3.648438-79.78125-21.832031-95.375-15.3125-13.144531-42.746094-15.824218-88.953126-8.71875-4.441406.671875-8.457031-2.328125-9.128906-6.6875-.671875-4.363281 2.320313-8.449218 6.6875-9.121094 51.921875-7.976562 82.378906-4.289062 101.816406 12.382813 22.824219 19.585937 27.410157 55.65625 27.410157 107.519531 0 4.417969-3.578125 8-8 8zm0 0"/><path d="m64.011719 144.003906c-4.425781 0-8-3.582031-8-8 0-51.863281 4.582031-87.933594 27.40625-107.519531 19.441406-16.671875 49.894531-20.367187 101.816406-12.382813 4.367187.671876 7.359375 4.757813 6.6875 9.121094-.671875 4.367188-4.726563 7.34375-9.128906 6.6875-46.191407-7.097656-73.648438-4.425781-88.949219 8.71875-18.183594 15.59375-21.832031 48.054688-21.832031 95.375 0 4.417969-3.578125 8-8 8zm0 0"/><path d="m304.011719 144.003906c-4.417969 0-8-3.574218-8-8 0-1.589844-2.914063-7.414062-11.5625-14.375-18.742188-15.089844-54.566407-27.777344-98.726563-18.121094-4.375.929688-8.585937-1.800781-9.519531-6.109374-.945313-4.320313 1.792969-8.578126 6.101563-9.523438 62.546874-13.671875 101.671874 12.832031 112.175781 21.289062 11.136719 8.96875 17.523437 18.746094 17.53125 26.839844 0 4.417969-3.578125 8-8 8zm0 0"/><path d="m64.011719 144.003906c-4.417969 0-8-3.574218-8-8-.007813-8.078125 6.375-17.855468 17.496093-26.816406 10.503907-8.453125 49.597657-34.976562 112.214844-21.3125 4.3125.945312 7.046875 5.210938 6.105469 9.523438-.9375 4.308593-5.167969 7.039062-9.523437 6.109374-44.183594-9.664062-80 3.03125-98.75 18.136719-8.632813 6.953125-11.535157 12.769531-11.535157 14.351563-.007812 4.425781-3.585937 8.007812-8.007812 8.007812zm0 0"/><path d="m184.011719 103.972656c-4.425781 0-8-3.582031-8-8v-71.96875c0-4.414062 3.574219-8 8-8 4.421875 0 8 3.585938 8 8v71.96875c0 4.417969-3.578125 8-8 8zm0 0"/><path d="m64.011719 376.507812c-4.417969 0-8-3.574218-8-8l-.007813-152.496093c0-4.414063 3.574219-8 8-8 4.414063 0 8 3.585937 8 8l.007813 152.503906c0 4.410156-3.578125 7.992187-8 7.992187zm0 0"/><path d="m304.011719 376.53125c-4.417969 0-8-3.574219-8-8l-.007813-152.519531c0-4.414063 3.574219-8 8-8 4.414063 0 8 3.585937 8 8l.007813 152.519531c0 4.417969-3.578125 8-8 8zm0 0"/><path d="m312.011719 144.003906h-256c-4.425781 0-8-3.582031-8-8 0-4.414062 3.574219-8 8-8h256c4.421875 0 8 3.585938 8 8 0 4.417969-3.578125 8-8 8zm0 0"/><path d="m312.003906 168.003906h-255.992187c-4.425781 0-8-3.582031-8-8 0-4.414062 3.574219-8 8-8h255.992187c4.421875 0 8 3.585938 8 8 0 4.417969-3.578125 8-8 8zm0 0"/><path d="m56.011719 168.003906c-4.425781 0-8-3.582031-8-8v-24c0-4.414062 3.574219-8 8-8 4.421875 0 8 3.585938 8 8v24c0 4.417969-3.578125 8-8 8zm0 0"/><path d="m312.003906 168.003906c-4.425781 0-8-3.582031-8-8l.007813-24c0-4.414062 3.582031-8 8-8 4.421875 0 8 3.585938 8 8l-.007813 24c0 4.417969-3.585937 8-8 8zm0 0"/><path d="m312.019531 144.003906c-.488281 0-.984375-.039062-1.488281-.136718-4.34375-.8125-7.199219-5-6.386719-9.335938l23.992188-128c.816406-4.335938 4.96875-7.214844 9.335937-6.390625 4.347656.816406 7.203125 5 6.386719 9.335937l-23.992187 128c-.710938 3.847657-4.074219 6.527344-7.847657 6.527344zm0 0"/><path d="m317.851562 112.84375c-2.875 0-5.648437-1.542969-7.082031-4.261719-2.070312-3.90625-.566406-8.746093 3.335938-10.816406 14.488281-7.65625 23.511719-17.992187 26.832031-30.730469 6.746094-25.933594-11.457031-54.390625-11.640625-54.671875-2.398437-3.703125-1.359375-8.65625 2.34375-11.0625 3.683594-2.398437 8.648437-1.3749998 11.058594 2.320313.910156 1.390625 22.222656 34.519531 13.75 67.351562-4.472657 17.3125-16.199219 31.082032-34.863281 40.945313-1.191407.628906-2.472657.925781-3.734376.925781zm0 0"/><path d="m79.996094 168.003906c-1.523438 0-3.066406-.429687-4.433594-1.34375-3.679688-2.449218-4.671875-7.414062-2.214844-11.09375l16-24c2.445313-3.683594 7.40625-4.683594 11.09375-2.21875 3.679688 2.449219 4.671875 7.417969 2.21875 11.097656l-16 24c-1.539062 2.3125-4.082031 3.558594-6.664062 3.558594zm0 0"/><path d="m127.996094 168.003906c-1.523438 0-3.066406-.429687-4.433594-1.34375-3.679688-2.449218-4.671875-7.414062-2.214844-11.09375l16-24c2.445313-3.683594 7.398438-4.683594 11.09375-2.21875 3.679688 2.449219 4.671875 7.417969 2.21875 11.097656l-16 24c-1.539062 2.3125-4.082031 3.558594-6.664062 3.558594zm0 0"/><path d="m175.996094 168.003906c-1.523438 0-3.066406-.429687-4.433594-1.34375-3.679688-2.449218-4.671875-7.414062-2.214844-11.09375l16-24c2.445313-3.683594 7.398438-4.683594 11.09375-2.21875 3.679688 2.449219 4.671875 7.417969 2.21875 11.097656l-16 24c-1.539062 2.3125-4.082031 3.558594-6.664062 3.558594zm0 0"/><path d="m223.996094 168.003906c-1.523438 0-3.066406-.429687-4.433594-1.34375-3.679688-2.449218-4.671875-7.414062-2.214844-11.09375l16-24c2.4375-3.683594 7.398438-4.683594 11.09375-2.21875 3.679688 2.449219 4.671875 7.417969 2.21875 11.097656l-16 24c-1.539062 2.3125-4.082031 3.558594-6.664062 3.558594zm0 0"/><path d="m271.996094 168.003906c-1.523438 0-3.066406-.429687-4.433594-1.34375-3.679688-2.449218-4.671875-7.414062-2.214844-11.09375l16-24c2.445313-3.683594 7.398438-4.683594 11.09375-2.21875 3.679688 2.449219 4.671875 7.417969 2.21875 11.097656l-16 24c-1.539062 2.3125-4.082031 3.558594-6.664062 3.558594zm0 0"/></svg>